<svg xmlns="http://www.w3.org/2000/svg" width="300" height="300" viewBox="0 0 300 300" fill="none">
  <circle cx="150" cy="150" r="150" fill="#E6F0FF"/>
  <path d="M150 60C111.36 60 80 91.36 80 130C80 168.64 111.36 200 150 200C188.64 200 220 168.64 220 130C220 91.36 188.64 60 150 60ZM150 180C122.4 180 100 157.6 100 130C100 102.4 122.4 80 150 80C177.6 80 200 102.4 200 130C200 157.6 177.6 180 150 180Z" fill="#0D6EFD"/>
  <path d="M150 100C141.72 100 135 106.72 135 115C135 123.28 141.72 130 150 130C158.28 130 165 123.28 165 115C165 106.72 158.28 100 150 100Z" fill="#0D6EFD"/>
  <path d="M150 140C138.96 140 130 148.96 130 160V170C130 171.1 130.9 172 132 172H168C169.1 172 170 171.1 170 170V160C170 148.96 161.04 140 150 140Z" fill="#0D6EFD"/>
  <path d="M210 200H90C87.8 200 86 201.8 86 204V214C86 216.2 87.8 218 90 218H210C212.2 218 214 216.2 214 214V204C214 201.8 212.2 200 210 200Z" fill="#0D6EFD"/>
  <path d="M220 230H80C77.8 230 76 231.8 76 234V244C76 246.2 77.8 248 80 248H220C222.2 248 224 246.2 224 244V234C224 231.8 222.2 230 220 230Z" fill="#0D6EFD"/>
</svg> 