<svg xmlns="http://www.w3.org/2000/svg" width="500" height="400" viewBox="0 0 500 400" fill="none">
  <path d="M375 50H125C102.909 50 85 67.9086 85 90V310C85 332.091 102.909 350 125 350H375C397.091 350 415 332.091 415 310V90C415 67.9086 397.091 50 375 50Z" fill="#E6F0FF"/>
  <path d="M325 100H175C163.954 100 155 108.954 155 120V240C155 251.046 163.954 260 175 260H325C336.046 260 345 251.046 345 240V120C345 108.954 336.046 100 325 100Z" fill="#0D6EFD" fill-opacity="0.1"/>
  <path d="M195 130H175C169.477 130 165 134.477 165 140V160C165 165.523 169.477 170 175 170H195C200.523 170 205 165.523 205 160V140C205 134.477 200.523 130 195 130Z" fill="#0D6EFD"/>
  <path d="M245 130H225C219.477 130 215 134.477 215 140V160C215 165.523 219.477 170 225 170H245C250.523 170 255 165.523 255 160V140C255 134.477 250.523 130 245 130Z" fill="#0D6EFD"/>
  <path d="M295 130H275C269.477 130 265 134.477 265 140V160C265 165.523 269.477 170 275 170H295C300.523 170 305 165.523 305 160V140C305 134.477 300.523 130 295 130Z" fill="#0D6EFD"/>
  <path d="M325 190H175C169.477 190 165 194.477 165 200V220C165 225.523 169.477 230 175 230H325C330.523 230 335 225.523 335 220V200C335 194.477 330.523 190 325 190Z" fill="#0D6EFD"/>
  <path d="M325 280H175C163.954 280 155 288.954 155 300V330C155 341.046 163.954 350 175 350H325C336.046 350 345 341.046 345 330V300C345 288.954 336.046 280 325 280Z" fill="#0D6EFD" fill-opacity="0.2"/>
  <path d="M195 295H175C172.239 295 170 297.239 170 300V315C170 317.761 172.239 320 175 320H195C197.761 320 200 317.761 200 315V300C200 297.239 197.761 295 195 295Z" fill="#0D6EFD"/>
  <path d="M245 295H225C222.239 295 220 297.239 220 300V315C220 317.761 222.239 320 225 320H245C247.761 320 250 317.761 250 315V300C250 297.239 247.761 295 245 295Z" fill="#0D6EFD"/>
  <path d="M295 295H275C272.239 295 270 297.239 270 300V315C270 317.761 272.239 320 275 320H295C297.761 320 300 317.761 300 315V300C300 297.239 297.761 295 295 295Z" fill="#0D6EFD"/>
  <circle cx="415" cy="200" r="50" fill="#0D6EFD" fill-opacity="0.1"/>
  <circle cx="415" cy="200" r="35" fill="#0D6EFD" fill-opacity="0.2"/>
  <circle cx="415" cy="200" r="20" fill="#0D6EFD"/>
  <circle cx="85" cy="285" r="35" fill="#0D6EFD" fill-opacity="0.1"/>
  <circle cx="85" cy="285" r="20" fill="#0D6EFD" fill-opacity="0.2"/>
  <circle cx="85" cy="285" r="10" fill="#0D6EFD"/>
</svg> 